<?xml version="1.0" encoding="UTF-8"?>
<!DOCTYPE svg PUBLIC "-//W3C//DTD SVG 1.1//EN" "http://www.w3.org/Graphics/SVG/1.1/DTD/svg11.dtd">
<svg version="1.1" xmlns="http://www.w3.org/2000/svg" xmlns:xlink="http://www.w3.org/1999/xlink" x="0" y="0" width="116.328" height="21.48" viewBox="0, 0, 116.328, 21.48">
  <g id="レイヤー_1" transform="translate(-277.764, -343.864)">
    <path d="M277.764,348.592 L277.764,361 L281.172,361 L281.172,353.8 Q281.172,352.888 281.436,352.324 Q281.7,351.76 282.072,351.46 Q282.444,351.16 282.84,351.052 Q283.236,350.944 283.476,350.944 Q284.292,350.944 284.712,351.22 Q285.132,351.496 285.312,351.952 Q285.492,352.408 285.516,352.948 Q285.54,353.488 285.54,354.04 L285.54,361 L288.948,361 L288.948,354.088 Q288.948,353.512 289.032,352.948 Q289.116,352.384 289.368,351.94 Q289.62,351.496 290.064,351.22 Q290.508,350.944 291.228,350.944 Q291.948,350.944 292.368,351.184 Q292.788,351.424 293.004,351.832 Q293.22,352.24 293.268,352.792 Q293.316,353.344 293.316,353.968 L293.316,361 L296.724,361 L296.724,352.696 Q296.724,351.496 296.388,350.644 Q296.052,349.792 295.452,349.264 Q294.852,348.736 294.012,348.496 Q293.172,348.256 292.188,348.256 Q290.892,348.256 289.944,348.88 Q288.996,349.504 288.444,350.32 Q287.94,349.168 286.968,348.712 Q285.996,348.256 284.82,348.256 Q283.596,348.256 282.648,348.784 Q281.7,349.312 281.028,350.272 L280.98,350.272 L280.98,348.592 z" fill="#000000"/>
    <path d="M299.268,352.408 Q299.34,351.208 299.868,350.416 Q300.396,349.624 301.212,349.144 Q302.028,348.664 303.048,348.46 Q304.068,348.256 305.1,348.256 Q306.036,348.256 306.996,348.388 Q307.956,348.52 308.748,348.904 Q309.54,349.288 310.044,349.972 Q310.548,350.656 310.548,351.784 L310.548,358.24 Q310.548,359.08 310.644,359.848 Q310.74,360.616 310.98,361 L307.524,361 Q307.428,360.712 307.368,360.412 Q307.308,360.112 307.284,359.8 Q306.468,360.64 305.364,360.976 Q304.26,361.312 303.108,361.312 Q302.22,361.312 301.452,361.096 Q300.684,360.88 300.108,360.424 Q299.532,359.968 299.208,359.272 Q298.884,358.576 298.884,357.616 Q298.884,356.56 299.256,355.876 Q299.628,355.192 300.216,354.784 Q300.804,354.376 301.56,354.172 Q302.316,353.968 303.084,353.848 Q303.852,353.728 304.596,353.656 Q305.34,353.584 305.916,353.44 Q306.492,353.296 306.828,353.02 Q307.164,352.744 307.14,352.216 Q307.14,351.664 306.96,351.34 Q306.78,351.016 306.48,350.836 Q306.18,350.656 305.784,350.596 Q305.388,350.536 304.932,350.536 Q303.924,350.536 303.348,350.968 Q302.772,351.4 302.676,352.408 z M307.14,354.928 Q306.924,355.12 306.6,355.228 Q306.276,355.336 305.904,355.408 Q305.532,355.48 305.124,355.528 Q304.716,355.576 304.308,355.648 Q303.924,355.72 303.552,355.84 Q303.18,355.96 302.904,356.164 Q302.628,356.368 302.46,356.68 Q302.292,356.992 302.292,357.472 Q302.292,357.928 302.46,358.24 Q302.628,358.552 302.916,358.732 Q303.204,358.912 303.588,358.984 Q303.972,359.056 304.38,359.056 Q305.388,359.056 305.94,358.72 Q306.492,358.384 306.756,357.916 Q307.02,357.448 307.08,356.968 Q307.14,356.488 307.14,356.2 z" fill="#000000"/>
    <path d="M326.124,358.768 Q325.308,358.768 324.732,358.432 Q324.156,358.096 323.808,357.556 Q323.46,357.016 323.304,356.296 Q323.148,355.576 323.148,354.832 Q323.148,354.064 323.292,353.344 Q323.436,352.624 323.784,352.072 Q324.132,351.52 324.696,351.172 Q325.26,350.824 326.1,350.824 Q326.916,350.824 327.48,351.172 Q328.044,351.52 328.404,352.084 Q328.764,352.648 328.92,353.368 Q329.076,354.088 329.076,354.832 Q329.076,355.576 328.932,356.296 Q328.788,357.016 328.44,357.556 Q328.092,358.096 327.528,358.432 Q326.964,358.768 326.124,358.768 z M319.86,348.592 L319.86,365.344 L323.268,365.344 L323.268,359.464 L323.316,359.464 Q323.94,360.376 324.912,360.844 Q325.884,361.312 327.036,361.312 Q328.404,361.312 329.424,360.784 Q330.444,360.256 331.128,359.368 Q331.812,358.48 332.148,357.328 Q332.484,356.176 332.484,354.928 Q332.484,353.608 332.148,352.396 Q331.812,351.184 331.116,350.272 Q330.42,349.36 329.364,348.808 Q328.308,348.256 326.844,348.256 Q325.692,348.256 324.732,348.712 Q323.772,349.168 323.148,350.176 L323.1,350.176 L323.1,348.592 z" fill="#000000"/>
    <path d="M337.548,354.808 Q337.548,354.064 337.692,353.344 Q337.836,352.624 338.184,352.072 Q338.532,351.52 339.108,351.172 Q339.684,350.824 340.548,350.824 Q341.412,350.824 342,351.172 Q342.588,351.52 342.936,352.072 Q343.284,352.624 343.428,353.344 Q343.572,354.064 343.572,354.808 Q343.572,355.552 343.428,356.26 Q343.284,356.968 342.936,357.532 Q342.588,358.096 342,358.432 Q341.412,358.768 340.548,358.768 Q339.684,358.768 339.108,358.432 Q338.532,358.096 338.184,357.532 Q337.836,356.968 337.692,356.26 Q337.548,355.552 337.548,354.808 z M334.14,354.808 Q334.14,356.296 334.596,357.496 Q335.052,358.696 335.892,359.548 Q336.732,360.4 337.908,360.856 Q339.084,361.312 340.548,361.312 Q342.012,361.312 343.2,360.856 Q344.388,360.4 345.228,359.548 Q346.068,358.696 346.524,357.496 Q346.98,356.296 346.98,354.808 Q346.98,353.32 346.524,352.108 Q346.068,350.896 345.228,350.044 Q344.388,349.192 343.2,348.724 Q342.012,348.256 340.548,348.256 Q339.084,348.256 337.908,348.724 Q336.732,349.192 335.892,350.044 Q335.052,350.896 334.596,352.108 Q334.14,353.32 334.14,354.808 z" fill="#000000"/>
    <path d="M349.188,348.592 L349.188,361 L352.596,361 L352.596,355.408 Q352.596,354.568 352.764,353.848 Q352.932,353.128 353.328,352.588 Q353.724,352.048 354.372,351.736 Q355.02,351.424 355.956,351.424 Q356.268,351.424 356.604,351.46 Q356.94,351.496 357.18,351.544 L357.18,348.376 Q356.772,348.256 356.436,348.256 Q355.788,348.256 355.188,348.448 Q354.588,348.64 354.06,348.988 Q353.532,349.336 353.124,349.828 Q352.716,350.32 352.476,350.896 L352.428,350.896 L352.428,348.592 z" fill="#000000"/>
    <path d="M362.844,348.592 L362.844,344.872 L359.436,344.872 L359.436,348.592 L357.372,348.592 L357.372,350.872 L359.436,350.872 L359.436,358.192 Q359.436,359.128 359.748,359.704 Q360.06,360.28 360.6,360.592 Q361.14,360.904 361.848,361.012 Q362.556,361.12 363.348,361.12 Q363.852,361.12 364.38,361.096 Q364.908,361.072 365.34,361 L365.34,358.36 Q365.1,358.408 364.836,358.432 Q364.572,358.456 364.284,358.456 Q363.42,358.456 363.132,358.168 Q362.844,357.88 362.844,357.016 L362.844,350.872 L365.34,350.872 L365.34,348.592 z" fill="#000000"/>
    <path d="M367.716,350.872 L367.716,361 L371.124,361 L371.124,350.872 L373.476,350.872 L373.476,348.592 L371.124,348.592 L371.124,347.848 Q371.124,347.08 371.424,346.756 Q371.724,346.432 372.42,346.432 Q373.068,346.432 373.668,346.504 L373.668,343.96 Q373.236,343.936 372.78,343.9 Q372.324,343.864 371.868,343.864 Q369.78,343.864 368.748,344.92 Q367.716,345.976 367.716,347.632 L367.716,348.592 L365.676,348.592 L365.676,350.872 z M375.54,348.592 L375.54,361 L378.948,361 L378.948,348.592 z M378.948,346.672 L378.948,343.864 L375.54,343.864 L375.54,346.672 z" fill="#000000"/>
    <path d="M384.66,354.808 Q384.66,354.064 384.804,353.344 Q384.948,352.624 385.296,352.072 Q385.644,351.52 386.22,351.172 Q386.796,350.824 387.66,350.824 Q388.524,350.824 389.112,351.172 Q389.7,351.52 390.048,352.072 Q390.396,352.624 390.54,353.344 Q390.684,354.064 390.684,354.808 Q390.684,355.552 390.54,356.26 Q390.396,356.968 390.048,357.532 Q389.7,358.096 389.112,358.432 Q388.524,358.768 387.66,358.768 Q386.796,358.768 386.22,358.432 Q385.644,358.096 385.296,357.532 Q384.948,356.968 384.804,356.26 Q384.66,355.552 384.66,354.808 z M381.252,354.808 Q381.252,356.296 381.708,357.496 Q382.164,358.696 383.004,359.548 Q383.844,360.4 385.02,360.856 Q386.196,361.312 387.66,361.312 Q389.124,361.312 390.312,360.856 Q391.5,360.4 392.34,359.548 Q393.18,358.696 393.636,357.496 Q394.092,356.296 394.092,354.808 Q394.092,353.32 393.636,352.108 Q393.18,350.896 392.34,350.044 Q391.5,349.192 390.312,348.724 Q389.124,348.256 387.66,348.256 Q386.196,348.256 385.02,348.724 Q383.844,349.192 383.004,350.044 Q382.164,350.896 381.708,352.108 Q381.252,353.32 381.252,354.808 z" fill="#000000"/>
  </g>
</svg>
